<mxfile host="app.diagrams.net" agent="Mozilla/5.0 (Macintosh; Intel Mac OS X 10_15_7) AppleWebKit/537.36 (KHTML, like Gecko) Chrome/136.0.0.0 Safari/537.36" version="27.1.1">
  <diagram name="PÃ¡gina-1" id="puODdOlJbre2iRw7lYyX">
    <mxGraphModel dx="1215" dy="545" grid="1" gridSize="10" guides="1" tooltips="1" connect="1" arrows="1" fold="1" page="1" pageScale="1" pageWidth="827" pageHeight="1169" math="0" shadow="0">
      <root>
        <mxCell id="0" />
        <mxCell id="1" parent="0" />
        <mxCell id="G6J1Onvoki_XsAWRq-EA-1" value="Vector3D" style="swimlane;fontStyle=1;align=center;verticalAlign=top;childLayout=stackLayout;horizontal=1;startSize=26;horizontalStack=0;resizeParent=1;resizeParentMax=0;resizeLast=0;collapsible=1;marginBottom=0;whiteSpace=wrap;html=1;" parent="1" vertex="1">
          <mxGeometry x="190" y="140" width="300" height="280" as="geometry" />
        </mxCell>
        <mxCell id="G6J1Onvoki_XsAWRq-EA-2" value="&lt;div&gt;&lt;div&gt;&lt;div&gt;- x float&lt;/div&gt;&lt;/div&gt;&lt;/div&gt;&lt;div&gt;- y float&lt;/div&gt;&lt;div&gt;- z float&lt;/div&gt;" style="text;strokeColor=none;fillColor=none;align=left;verticalAlign=top;spacingLeft=4;spacingRight=4;overflow=hidden;rotatable=0;points=[[0,0.5],[1,0.5]];portConstraint=eastwest;whiteSpace=wrap;html=1;" parent="G6J1Onvoki_XsAWRq-EA-1" vertex="1">
          <mxGeometry y="26" width="300" height="114" as="geometry" />
        </mxCell>
        <mxCell id="G6J1Onvoki_XsAWRq-EA-3" value="" style="line;strokeWidth=1;fillColor=none;align=left;verticalAlign=middle;spacingTop=-1;spacingLeft=3;spacingRight=3;rotatable=0;labelPosition=right;points=[];portConstraint=eastwest;strokeColor=inherit;" parent="G6J1Onvoki_XsAWRq-EA-1" vertex="1">
          <mxGeometry y="140" width="300" height="8" as="geometry" />
        </mxCell>
        <mxCell id="G6J1Onvoki_XsAWRq-EA-4" value="&lt;div&gt;+ Vector3D()&lt;/div&gt;&lt;div&gt;+ Vector3D(float x, float y, float z)&lt;/div&gt;&lt;div&gt;+ float getX()&lt;/div&gt;&lt;div&gt;+ float getY()&lt;/div&gt;&lt;div&gt;+ float getZ()&lt;/div&gt;&lt;div&gt;+ static Vector3D suma(Vector3D v1, Vector3D v2)&lt;/div&gt;&lt;div&gt;+&amp;nbsp;&lt;span style=&quot;background-color: transparent; color: light-dark(rgb(0, 0, 0), rgb(255, 255, 255));&quot;&gt;static Vector3D resta(Vector3D v1, Vector3D v2)&lt;/span&gt;&lt;/div&gt;&lt;div&gt;&lt;span style=&quot;background-color: transparent; color: light-dark(rgb(0, 0, 0), rgb(255, 255, 255));&quot;&gt;+ void imprimir&lt;/span&gt;&lt;/div&gt;" style="text;strokeColor=none;fillColor=none;align=left;verticalAlign=top;spacingLeft=4;spacingRight=4;overflow=hidden;rotatable=0;points=[[0,0.5],[1,0.5]];portConstraint=eastwest;whiteSpace=wrap;html=1;" parent="G6J1Onvoki_XsAWRq-EA-1" vertex="1">
          <mxGeometry y="148" width="300" height="132" as="geometry" />
        </mxCell>
        <mxCell id="G6J1Onvoki_XsAWRq-EA-5" value="ArregloVector" style="swimlane;fontStyle=1;align=center;verticalAlign=top;childLayout=stackLayout;horizontal=1;startSize=26;horizontalStack=0;resizeParent=1;resizeParentMax=0;resizeLast=0;collapsible=1;marginBottom=0;whiteSpace=wrap;html=1;" parent="1" vertex="1">
          <mxGeometry x="660" y="140" width="300" height="280" as="geometry" />
        </mxCell>
        <mxCell id="G6J1Onvoki_XsAWRq-EA-6" value="- vectores [6]: Vector3D&lt;div&gt;&lt;div&gt;- int inidice&lt;/div&gt;&lt;div&gt;&lt;div&gt;&lt;br&gt;&lt;/div&gt;&lt;/div&gt;&lt;/div&gt;" style="text;strokeColor=none;fillColor=none;align=left;verticalAlign=top;spacingLeft=4;spacingRight=4;overflow=hidden;rotatable=0;points=[[0,0.5],[1,0.5]];portConstraint=eastwest;whiteSpace=wrap;html=1;" parent="G6J1Onvoki_XsAWRq-EA-5" vertex="1">
          <mxGeometry y="26" width="300" height="114" as="geometry" />
        </mxCell>
        <mxCell id="G6J1Onvoki_XsAWRq-EA-7" value="" style="line;strokeWidth=1;fillColor=none;align=left;verticalAlign=middle;spacingTop=-1;spacingLeft=3;spacingRight=3;rotatable=0;labelPosition=right;points=[];portConstraint=eastwest;strokeColor=inherit;" parent="G6J1Onvoki_XsAWRq-EA-5" vertex="1">
          <mxGeometry y="140" width="300" height="8" as="geometry" />
        </mxCell>
        <mxCell id="G6J1Onvoki_XsAWRq-EA-8" value="+ Vector3D getVector(int indice)&lt;div&gt;+ void agregar(Vector3D vec)&lt;/div&gt;&lt;div&gt;+ Vector3D suma()&lt;/div&gt;&lt;div&gt;+ void imprimir()&lt;/div&gt;" style="text;strokeColor=none;fillColor=none;align=left;verticalAlign=top;spacingLeft=4;spacingRight=4;overflow=hidden;rotatable=0;points=[[0,0.5],[1,0.5]];portConstraint=eastwest;whiteSpace=wrap;html=1;" parent="G6J1Onvoki_XsAWRq-EA-5" vertex="1">
          <mxGeometry y="148" width="300" height="132" as="geometry" />
        </mxCell>
        <mxCell id="G6J1Onvoki_XsAWRq-EA-9" value="1" style="endArrow=open;html=1;endSize=12;startArrow=diamondThin;startSize=14;startFill=0;edgeStyle=orthogonalEdgeStyle;align=left;verticalAlign=bottom;rounded=0;exitX=0.005;exitY=0.846;exitDx=0;exitDy=0;exitPerimeter=0;" parent="1" source="G6J1Onvoki_XsAWRq-EA-6" edge="1">
          <mxGeometry x="-1" y="3" relative="1" as="geometry">
            <mxPoint x="660" y="220" as="sourcePoint" />
            <mxPoint x="490" y="220" as="targetPoint" />
          </mxGeometry>
        </mxCell>
      </root>
    </mxGraphModel>
  </diagram>
</mxfile>
